<svg width="27" height="25" viewBox="0 0 27 25" fill="none" xmlns="http://www.w3.org/2000/svg">
<path d="M26.5 4V3.5H26H22.1079H21.6079V4V13.7416C21.6079 15.0058 21.3433 15.861 20.8997 16.3945C20.4708 16.9104 19.8073 17.2051 18.8128 17.2051C17.7818 17.2051 17.0931 16.9074 16.6498 16.3892C16.1936 15.8559 15.9222 15.0031 15.9222 13.7416V4V3.5H15.4222H11.554H11.054V4V13.7416C11.054 15.0038 10.7842 15.8572 10.3312 16.3905C9.89148 16.9081 9.20909 17.2051 8.1872 17.2051C7.18871 17.2051 6.51795 16.9195 6.0822 16.423C5.63723 15.9002 5.36819 15.0386 5.36819 13.7416V4V3.5H4.86819H1H0.5V4V13.861C0.5 16.2744 1.15498 18.1962 2.53736 19.5435L2.53971 19.5457C3.91736 20.871 5.84049 21.5 8.23496 21.5C9.41416 21.5 10.486 21.3256 11.443 20.9668C12.2243 20.6738 12.907 20.2794 13.4841 19.78C14.0513 20.28 14.729 20.6742 15.5093 20.9668L15.512 20.9678C16.4839 21.3258 17.5706 21.5 18.765 21.5C21.1595 21.5 23.0826 20.871 24.4603 19.5457L24.4626 19.5435C25.845 18.1962 26.5 16.2744 26.5 13.861V4Z" fill="#292E39" stroke="white"/>
</svg>
